<svg width="128" height="128" viewBox="0 0 128 128" fill="none" xmlns="http://www.w3.org/2000/svg">
  <defs>
    <linearGradient id="robotBg" x1="20" y1="16" x2="108" y2="112" gradientUnits="userSpaceOnUse">
      <stop stop-color="#0A192F"/>
      <stop offset="1" stop-color="#003366"/>
    </linearGradient>
    <linearGradient id="robotAccent" x1="40" y1="34" x2="88" y2="90" gradientUnits="userSpaceOnUse">
      <stop stop-color="#FADB5F"/>
      <stop offset="1" stop-color="#D4AF37"/>
    </linearGradient>
  </defs>
  <rect width="128" height="128" rx="32" fill="url(#robotBg)"/>
  <rect x="34" y="30" width="60" height="50" rx="16" fill="#E5EEF8"/>
  <rect x="44" y="40" width="16" height="12" rx="6" fill="#003366"/>
  <rect x="68" y="40" width="16" height="12" rx="6" fill="#003366"/>
  <rect x="50" y="60" width="28" height="8" rx="4" fill="url(#robotAccent)"/>
  <path d="M64 18V30" stroke="url(#robotAccent)" stroke-width="6" stroke-linecap="round"/>
  <circle cx="64" cy="14" r="8" fill="url(#robotAccent)"/>
  <rect x="28" y="86" width="72" height="18" rx="9" fill="#E5EEF8"/>
  <rect x="22" y="50" width="10" height="30" rx="5" fill="#E5EEF8"/>
  <rect x="96" y="50" width="10" height="30" rx="5" fill="#E5EEF8"/>
  <rect x="42" y="104" width="12" height="10" rx="5" fill="#D4AF37"/>
  <rect x="74" y="104" width="12" height="10" rx="5" fill="#D4AF37"/>
</svg>
